<svg id="Cart" xmlns="http://www.w3.org/2000/svg" width="25.437" height="25.795" viewBox="0 0 25.437 25.795">
  <g id="Group_105" data-name="Group 105" transform="translate(0 0)">
    <path id="Path_2245" data-name="Path 2245" d="M22.1,27.8H7.728A5.544,5.544,0,0,1,2.2,22.268v-.184l.553-14.74A5.506,5.506,0,0,1,8.28,2H21.546a5.506,5.506,0,0,1,5.528,5.343l.553,14.74a5.331,5.331,0,0,1-1.474,3.961,5.246,5.246,0,0,1-3.869,1.75H22.1ZM8.28,3.843A3.661,3.661,0,0,0,4.6,7.343L4.043,22.268a3.7,3.7,0,0,0,3.685,3.685H22.283a3.428,3.428,0,0,0,2.58-1.2,4.014,4.014,0,0,0,1.013-2.672l-.553-14.74a3.6,3.6,0,0,0-3.685-3.5Z" transform="translate(-2.2 -2)" fill="#122133"/>
  </g>
  <g id="Group_106" data-name="Group 106" transform="translate(6.265 3.685)">
    <path id="Path_2246" data-name="Path 2246" d="M15.449,13.37A6.409,6.409,0,0,1,9,6.921.87.87,0,0,1,9.921,6a.87.87,0,0,1,.921.921,4.606,4.606,0,1,0,9.213,0,.921.921,0,0,1,1.843,0A6.409,6.409,0,0,1,15.449,13.37Z" transform="translate(-9 -6)" fill="#122133"/>
  </g>
</svg>
