<svg id="Layer_1" xmlns="http://www.w3.org/2000/svg" width="31.101" height="24.881" viewBox="0 0 31.101 24.881">
  <path id="Path_2248" data-name="Path 2248" d="M30.027,8.147H3.073A2.073,2.073,0,0,1,3.073,4H30.027a2.073,2.073,0,1,1,0,4.147Z" transform="translate(-1 -4)" fill="#122133"/>
  <path id="Path_2249" data-name="Path 2249" d="M30.027,28.147H3.073a2.073,2.073,0,1,1,0-4.147H30.027a2.073,2.073,0,1,1,0,4.147Z" transform="translate(-1 -3.266)" fill="#122133"/>
  <path id="Path_2250" data-name="Path 2250" d="M30.027,18.147H3.073a2.073,2.073,0,1,1,0-4.147H30.027a2.073,2.073,0,1,1,0,4.147Z" transform="translate(-1 -3.633)" fill="#122133"/>
</svg>
