<svg xmlns="http://www.w3.org/2000/svg" width="120" height="120" viewBox="0 0 120 120">
  <g id="Group_220" data-name="Group 220" transform="translate(-279 -617.424)">
    <g id="Group_217" data-name="Group 217">
      <circle id="Ellipse_29" data-name="Ellipse 29" cx="60" cy="60" r="60" transform="translate(279 617.424)" fill="#3573c4"/>
    </g>
    <g id="premium-badge" transform="translate(286.454 647.444)">
      <g id="Layer_5_21_" transform="translate(26.93)">
        <g id="Group_117" data-name="Group 117" transform="translate(0)">
          <path id="Path_2281" data-name="Path 2281" d="M77.929,50.947,70.08,37.457c1.358-.414,2.805-.78,3.406-1.818,1-1.73-.782-4.567-.313-6.421.482-1.908,3.33-3.559,3.33-5.5,0-1.89-2.944-4.1-3.427-5.994-.472-1.854,1.307-4.694.3-6.421s-4.353-1.586-5.731-2.912c-1.418-1.365-1.414-4.7-3.124-5.618s-4.508.937-6.415.5C56.223,2.838,54.539,0,52.57,0c-2,0-5.176,3.219-5.675,3.335-1.906.443-4.7-1.408-6.416-.486s-1.7,4.257-3.114,5.624C35.99,9.8,32.642,9.666,31.64,11.4s.782,4.566.313,6.421-3.416,3.744-3.416,5.894c0,1.94,2.855,3.585,3.34,5.492.472,1.854-1.306,4.694-.3,6.422.547.941,1.789,1.327,3.029,1.7.145.043.418.205.233.475L27.162,51.046a1.094,1.094,0,0,0,.98,1.786l5.3.221A4.216,4.216,0,0,1,36.455,54.8l2.826,4.484a1.094,1.094,0,0,0,2.037-.038s7.907-13.651,7.91-13.655c.159-.185.318-.147.394-.082A5.474,5.474,0,0,0,52.7,46.98a4.735,4.735,0,0,0,2.805-1.463c.074-.063.253-.191.384.076l7.9,13.581a1.094,1.094,0,0,0,2.037.035l2.818-4.49a4.216,4.216,0,0,1,3.014-1.753l5.3-.231A1.094,1.094,0,0,0,77.929,50.947ZM61.322,38.667a17.551,17.551,0,1,1-.351-30.6l.13.073.185.1a17.583,17.583,0,0,1,.036,30.423Z" transform="translate(-26.93)" fill="#fff"/>
          <path id="Path_2282" data-name="Path 2282" d="M115.579,55.534l-.073-.041a14.8,14.8,0,0,0-15.277,25.34c.168.107.339.211.513.312a14.8,14.8,0,0,0,14.838-25.611Zm1.767,11.544-2.473,2.41a4.154,4.154,0,0,0-1.063,3.274l.584,3.4c.181,1.054-.446,1.509-1.392,1.012l-3.056-1.607a4.155,4.155,0,0,0-3.442,0l-3.056,1.607c-.947.5-1.573.042-1.392-1.012l.584-3.4a4.154,4.154,0,0,0-1.064-3.274L99.1,67.078c-.766-.746-.526-1.483.532-1.637l3.417-.5a4.155,4.155,0,0,0,2.785-2.023l1.528-3.1c.473-.959,1.248-.959,1.721,0l1.528,3.1a4.155,4.155,0,0,0,2.785,2.023l3.417.5C117.872,65.595,118.111,66.331,117.346,67.078Z" transform="translate(-82.525 -44.823)" fill="#fff"/>
        </g>
      </g>
    </g>
  </g>
</svg>
