<svg xmlns="http://www.w3.org/2000/svg" width="120" height="120" viewBox="0 0 120 120">
  <g id="Group_221" data-name="Group 221" transform="translate(-1521 -617.424)">
    <circle id="Ellipse_31" data-name="Ellipse 31" cx="60" cy="60" r="60" transform="translate(1521 617.424)" fill="#3573c4"/>
    <path id="procurement" d="M32.9,62.56a29.166,29.166,0,0,1-6.708-.775.773.773,0,1,1,.357-1.5,27.646,27.646,0,0,0,6.351.732A28.119,28.119,0,0,0,60.511,27.605a.774.774,0,0,1,.612-.907.764.764,0,0,1,.907.612A29.667,29.667,0,0,1,32.9,62.56ZM4.686,39.111A.773.773,0,0,0,5.3,38.2,28.119,28.119,0,0,1,32.9,4.8a27.646,27.646,0,0,1,6.351.732.773.773,0,0,0,.357-1.5A29.166,29.166,0,0,0,32.9,3.25,29.667,29.667,0,0,0,3.78,38.5a.774.774,0,0,0,.758.627A.736.736,0,0,0,4.686,39.111ZM51.41,14.957l-3.755-2.166V15.71a.774.774,0,1,1-1.547,0V11.894L42.58,9.862a2.6,2.6,0,0,0-.093.691v8.293A2.854,2.854,0,0,0,43.9,21.3l7.179,4.146a2.975,2.975,0,0,0,.65.268V15.091A1.744,1.744,0,0,1,51.41,14.957ZM53.926,3.951a2.862,2.862,0,0,0-2.847,0L43.9,8.1a2.424,2.424,0,0,0-.547.423l3.651,2.1,9.242-5.333ZM61.105,8.1,57.794,6.19l-9.242,5.333,3.631,2.094a.643.643,0,0,0,.64,0l8.829-5.1A2.424,2.424,0,0,0,61.105,8.1Zm-7.5,6.859a2.143,2.143,0,0,1-.324.134V25.712a2.8,2.8,0,0,0,.645-.266L61.1,21.3a2.843,2.843,0,0,0,1.419-2.457V10.552a2.814,2.814,0,0,0-.092-.691ZM12.213,51.425,8.458,49.259v2.919a.774.774,0,1,1-1.547,0V48.362L3.383,46.33a2.6,2.6,0,0,0-.093.691v8.293A2.854,2.854,0,0,0,4.7,57.769l7.179,4.146a2.975,2.975,0,0,0,.65.268V51.559A1.745,1.745,0,0,1,12.213,51.425ZM14.729,40.42a2.862,2.862,0,0,0-2.847,0L4.7,44.566a2.424,2.424,0,0,0-.547.423l3.651,2.1L17.05,41.76Zm7.179,4.147L18.6,42.658,9.355,47.991l3.631,2.094a.643.643,0,0,0,.64,0l8.829-5.1A2.424,2.424,0,0,0,21.908,44.566Zm-7.5,6.859a2.143,2.143,0,0,1-.324.134V62.18a2.8,2.8,0,0,0,.645-.266l7.18-4.145a2.843,2.843,0,0,0,1.419-2.457V47.02a2.814,2.814,0,0,0-.092-.691Zm5.608-29.608h0a2.321,2.321,0,0,0-2.321,2.321V29.81A1.805,1.805,0,0,0,19.5,31.616h2.063a.774.774,0,0,0,.774-.774v-6.7A2.321,2.321,0,0,0,20.012,21.817ZM45.025,41.93V39.352a1.035,1.035,0,0,0-1.032-1.031H30.584a1.031,1.031,0,0,0-1.031,1.031V41.93a3.57,3.57,0,0,1-.667,2.063H42.962A2.063,2.063,0,0,0,45.025,41.93Zm-17.019-.495v.495a2.063,2.063,0,0,1-4.126,0V24.137a3.771,3.771,0,0,0-.784-2.321h16a2.835,2.835,0,0,1,2.837,2.837v12.12H30.584a2.581,2.581,0,0,0-2.579,2.579Zm.768-12.652L30.685,30.7a1.805,1.805,0,0,0,2.553,0l3.37-3.37a.774.774,0,1,0-1.094-1.094l-3.37,3.37a.218.218,0,0,1-.365,0L29.867,27.69a.774.774,0,0,0-1.094,1.094Z" transform="translate(1548.095 643.739)" fill="#fff"/>
  </g>
</svg>
