<svg xmlns="http://www.w3.org/2000/svg" width="120" height="120" viewBox="0 0 120 120">
  <g id="Group_219" data-name="Group 219" transform="translate(-1108 -617.424)">
    <circle id="Ellipse_32" data-name="Ellipse 32" cx="60" cy="60" r="60" transform="translate(1108 617.424)" fill="#3573c4"/>
    <g id="Layer_x0020_1" transform="translate(1142.471 646.664)">
      <g id="_338664616" transform="translate(11.616)">
        <path id="_338665000" d="M12.506,56.637a51.726,51.726,0,0,0,13.023,1.477,51.9,51.9,0,0,0,12.925-1.453,1.213,1.213,0,0,0,.988-1.192V15.351c0-.018,0-.036,0-.054h0c-.1-2.214-2.1-3.923-3.136-4.66V6.031a1.213,1.213,0,1,0-2.426,0v5.252a1.213,1.213,0,0,0,.683,1.091c.422.26,2.35,1.524,2.459,2.976h0V54.533a51.8,51.8,0,0,1-11.487,1.156,51.8,51.8,0,0,1-11.487-1.156v-39.2c.136-1.621,2.532-3.005,2.539-3.009l0,0a1.213,1.213,0,0,0,.6-1.064V6.031a1.213,1.213,0,1,0-2.426,0v4.605c-1.013.723-2.964,2.385-3.129,4.541a1.227,1.227,0,0,0-.012.173V55.445a1.21,1.21,0,0,0,.89,1.192Z" transform="translate(-11.616 1.846)" fill="#fff"/>
        <rect id="_338664544" width="25.275" height="7.877" rx="0.767" transform="translate(1.276)" fill="#fff"/>
        <path id="_338664352" d="M35,19.726a11.646,11.646,0,0,1-7.782-.045c-.658-.212-1.3-.46-1.944-.723a35.032,35.032,0,0,0-5.807-2.183,8.132,8.132,0,0,0-5.343.587V49.19a51.642,51.642,0,0,0,10.438.946A51.643,51.643,0,0,0,35,49.19Z" transform="translate(-10.653 6.349)" fill="#fff" fill-rule="evenodd"/>
      </g>
    </g>
  </g>
</svg>
