<svg xmlns="http://www.w3.org/2000/svg" width="120" height="120" viewBox="0 0 120 120">
  <g id="Group_218" data-name="Group 218" transform="translate(-693 -617.424)">
    <circle id="Ellipse_30" data-name="Ellipse 30" cx="60" cy="60" r="60" transform="translate(693 617.424)" fill="#3573c4"/>
    <g id="source" transform="translate(726.78 651.204)">
      <g id="Group_118" data-name="Group 118">
        <path id="Path_2283" data-name="Path 2283" d="M5.736,14.471a5.736,5.736,0,1,1,5.736-5.736A5.742,5.742,0,0,1,5.736,14.471Zm0-8.194A2.458,2.458,0,1,0,8.194,8.736,2.461,2.461,0,0,0,5.736,6.277Z" transform="translate(0 1.916)" fill="#fff"/>
        <path id="Path_2284" data-name="Path 2284" d="M27.374,37.749a7.374,7.374,0,1,1,7.374-7.374A7.383,7.383,0,0,1,27.374,37.749Zm0-11.471a4.1,4.1,0,1,0,4.1,4.1A4.1,4.1,0,0,0,27.374,26.277Z" transform="translate(12.775 14.691)" fill="#fff"/>
        <path id="Path_2285" data-name="Path 2285" d="M22.916,9.832a4.916,4.916,0,1,1,4.916-4.916A4.922,4.922,0,0,1,22.916,9.832Zm0-6.555a1.639,1.639,0,1,0,1.639,1.639A1.639,1.639,0,0,0,22.916,3.277Z" transform="translate(11.497)" fill="#fff"/>
        <path id="Path_2286" data-name="Path 2286" d="M30.736,20.471a5.736,5.736,0,1,1,5.736-5.736A5.742,5.742,0,0,1,30.736,20.471Zm0-8.194a2.458,2.458,0,1,0,2.458,2.458A2.461,2.461,0,0,0,30.736,12.277Z" transform="translate(15.968 5.749)" fill="#fff"/>
        <path id="Path_2287" data-name="Path 2287" d="M6.555,37.11a6.555,6.555,0,1,1,6.555-6.555A6.562,6.562,0,0,1,6.555,37.11Zm0-9.832a3.277,3.277,0,1,0,3.277,3.277A3.281,3.281,0,0,0,6.555,27.277Z" transform="translate(0 15.33)" fill="#fff"/>
        <path id="Path_2288" data-name="Path 2288" d="M14.184,18.823a1.634,1.634,0,0,1-1.159-.48L4.75,10.067A1.638,1.638,0,0,1,7.067,7.75l8.277,8.277a1.637,1.637,0,0,1-1.16,2.8Z" transform="translate(2.727 4.643)" fill="#fff"/>
        <path id="Path_2289" data-name="Path 2289" d="M6.547,31.621A1.638,1.638,0,0,1,5.285,28.94l7.75-9.375a1.638,1.638,0,0,1,2.525,2.086l-7.75,9.375a1.634,1.634,0,0,1-1.263.595Z" transform="translate(3.136 12.116)" fill="#fff"/>
        <path id="Path_2290" data-name="Path 2290" d="M18.487,19.023a1.639,1.639,0,0,1-.421-3.222l13.5-3.605a1.639,1.639,0,0,1,.846,3.166l-13.5,3.605a1.651,1.651,0,0,1-.424.056Z" transform="translate(10.762 7.754)" fill="#fff"/>
        <path id="Path_2291" data-name="Path 2291" d="M16.317,19.843a1.639,1.639,0,0,1-1.431-2.435l7.13-12.815a1.639,1.639,0,0,1,2.865,1.593L17.751,19a1.638,1.638,0,0,1-1.434.842Z" transform="translate(9.377 2.395)" fill="#fff"/>
        <path id="Path_2292" data-name="Path 2292" d="M26.087,30.725a1.634,1.634,0,0,1-1.159-.48l-8.769-8.769a1.638,1.638,0,0,1,2.317-2.317l8.769,8.769a1.639,1.639,0,0,1-1.159,2.8Z" transform="translate(10.015 11.931)" fill="#fff"/>
      </g>
      <path id="Path_2293" data-name="Path 2293" d="M17.013,29.026a9.013,9.013,0,1,1,9.013-9.013A9.025,9.025,0,0,1,17.013,29.026Z" transform="translate(5.11 7.026)" fill="#fff"/>
    </g>
  </g>
</svg>
